<?xml version="1.0" standalone="no"?><!DOCTYPE svg PUBLIC "-//W3C//DTD SVG 1.1//EN" "http://www.w3.org/Graphics/SVG/1.1/DTD/svg11.dtd"><svg t="1564222827063" class="icon" viewBox="0 0 1024 1024" version="1.1" xmlns="http://www.w3.org/2000/svg" p-id="5829" xmlns:xlink="http://www.w3.org/1999/xlink" width="200" height="200"><defs><style type="text/css"></style></defs><path d="M831.601 830.694c-5.591 6.057-13.046 9.318-21.433 9.318L743.54 840.012c-15.841 0-28.887-12.114-29.819-27.956-15.375-270.703-231.099-486.428-501.803-502.269-15.841-0.932-27.956-13.979-27.956-29.354l0-66.628c0-8.387 3.262-15.842 9.318-21.433 5.591-5.591 13.046-8.387 20.501-8.387 0.466 0 0.932 0 1.398 0 163.074 8.387 316.364 76.878 431.914 192.895 116.016 115.55 184.507 268.839 192.894 431.914C840.453 816.717 837.657 824.637 831.601 830.694zM593.513 830.229c-5.591 6.522-13.512 9.784-21.898 9.784l-62.901 0c-15.375 0-27.956-11.648-29.353-27.023-13.512-142.108-126.267-254.862-268.374-268.374-15.376-1.397-27.024-13.978-27.024-29.354l0-62.9c0-8.387 3.262-16.308 9.785-21.898 5.125-5.125 12.58-7.921 20.035-7.921 0.932 0 1.398 0 2.33 0 99.243 7.921 192.894 51.252 263.249 122.073 70.821 70.354 114.152 164.006 122.073 263.248C601.899 816.25 599.104 824.171 593.513 830.229zM273.42 840.013c-49.388 0-89.458-40.069-89.458-89.458s40.07-89.458 89.458-89.458 89.458 40.069 89.458 89.458S322.809 840.013 273.42 840.013z" p-id="5830"></path></svg>